<svg width="32" height="32" viewBox="0 0 32 32" fill="none" xmlns="http://www.w3.org/2000/svg"><path d="M0 31.8515V24.7234H0.772867L4.01318 30.7179L7.23632 24.7234H8.02064V31.8465H7.21915V26.347L4.28226 31.8515H3.73839L0.807217 26.347V31.8515H0Z" fill="#316DC2"/><path d="M20.8969 32C20.3206 32 19.8016 31.9175 19.3397 31.7525C18.8817 31.5842 18.502 31.3466 18.2005 31.0397C17.9028 30.7328 17.7081 30.3681 17.6165 29.9457L18.4753 29.822C18.6127 30.284 18.9027 30.647 19.3455 30.911C19.7882 31.1717 20.3168 31.302 20.9313 31.302C21.3358 31.302 21.6984 31.2476 22.019 31.1387C22.3396 31.0265 22.5915 30.8681 22.7747 30.6635C22.9579 30.4589 23.0495 30.2163 23.0495 29.9358C23.0495 29.751 23.0113 29.5943 22.935 29.4656C22.8587 29.3336 22.7575 29.2247 22.6316 29.1389C22.5056 29.0531 22.3682 28.9821 22.2194 28.926C22.0705 28.8666 21.9255 28.8188 21.7843 28.7825L19.6947 28.2429C19.4428 28.1802 19.21 28.101 18.9962 28.0053C18.7825 27.9063 18.5955 27.7891 18.4352 27.6538C18.2787 27.5152 18.1566 27.3535 18.0688 27.1687C17.981 26.9839 17.9371 26.7727 17.9371 26.5351C17.9371 26.1325 18.0593 25.7844 18.3035 25.4907C18.5478 25.1969 18.8817 24.9709 19.3054 24.8125C19.729 24.6541 20.2118 24.5765 20.7538 24.5798C21.3034 24.5798 21.7938 24.664 22.2251 24.8323C22.6602 25.0006 23.019 25.2415 23.3014 25.555C23.5838 25.8652 23.7708 26.2332 23.8624 26.6589L22.9808 26.7975C22.9236 26.4873 22.7919 26.2183 22.5858 25.9906C22.3797 25.7629 22.1163 25.588 21.7957 25.4659C21.479 25.3405 21.1297 25.2761 20.7481 25.2728C20.3779 25.2728 20.0477 25.3273 19.7577 25.4362C19.4714 25.5418 19.2443 25.687 19.0764 25.8718C18.9085 26.0566 18.8245 26.2678 18.8245 26.5054C18.8245 26.7463 18.9008 26.9394 19.0535 27.0846C19.21 27.2298 19.4008 27.3436 19.626 27.4261C19.855 27.5086 20.0763 27.5763 20.2901 27.6291L21.9045 28.0399C22.0724 28.0795 22.269 28.1373 22.4942 28.2132C22.7232 28.2858 22.9445 28.3914 23.1583 28.53C23.3758 28.6653 23.5552 28.8435 23.6964 29.0646C23.8376 29.2857 23.9082 29.5662 23.9082 29.9061C23.9082 30.2361 23.8319 30.5315 23.6792 30.7922C23.5304 31.0529 23.3186 31.2723 23.0438 31.4505C22.7728 31.6287 22.4541 31.764 22.0877 31.8565C21.7251 31.9522 21.3282 32 20.8969 32Z" fill="#316DC2"/><path fill-rule="evenodd" clip-rule="evenodd" d="M12.5814 24.7234L9.74179 31.8515H10.6177L11.3063 30.1239H14.9684L15.6614 31.8515H16.5373L13.6977 24.7234H12.5814ZM14.6944 29.4408L13.1315 25.5445L11.5785 29.4408H11.007V30.1239H11.3063L11.5785 29.4408H14.6944Z" fill="#316DC2"/><path d="M11.007 29.4408V30.1239H11.3063L11.5785 29.4408H11.007Z" fill="#316DC2"/><path fill-rule="evenodd" clip-rule="evenodd" d="M28.0441 24.7234L25.2045 31.8515H26.0804L26.769 30.1239H30.4311L31.1241 31.8515H32L29.1604 24.7234H28.0441ZM30.1571 29.4408L28.5942 25.5445L27.0412 29.4408H26.4697V30.1239H26.769L27.0412 29.4408H30.1571Z" fill="#316DC2"/><path d="M26.4697 29.4408V30.1239H26.769L27.0412 29.4408H26.4697Z" fill="#316DC2"/><path d="M6.6429 6.25825C6.04671 6.68967 5.69728 7.60331 6.35597 8.6957C7.01466 9.78809 16.4252 17.1617 16.7701 17.3665C17.1152 17.5714 17.4605 17.6055 18.3385 16.8886C19.2169 16.1716 26.5557 10.5711 26.7451 10.4026C27.0464 10.1346 27.1215 9.4809 26.7451 9.17354C26.7451 9.17354 17.8542 15.9326 17.5631 16.2059C17.2722 16.479 16.8193 16.0352 16.9043 15.455C16.9897 14.8745 17.0526 14.8061 18.1818 13.9186C19.3111 13.031 25.7135 8.10157 26.004 7.88367C26.333 7.63673 26.3409 7.20059 25.8021 6.81491C25.053 6.27867 16.9576 0.43003 16.6868 0.225291C16.4153 0.0203839 16.0395 -0.165787 15.4749 0.24386C14.9104 0.653506 7.73818 5.46545 6.6429 6.25825Z" fill="#316DC2"/><path d="M16.7701 18.086C16.5437 17.9514 12.4148 14.731 9.41569 12.2235V17.4516C9.41336 21.2681 19.9978 23.3072 23.5044 18.6156V13.6187C21.3502 15.2721 18.8306 17.2064 18.3385 17.6079C17.4605 18.3248 17.1152 18.2907 16.7701 18.086Z" fill="#316DC2"/><path d="M21.2491 12.3533C21.2491 12.3533 22.8229 13.1571 22.9348 16.3915L22.1724 16.178L21.5624 17.4944C21.3043 13.9525 19.899 13.4389 19.899 13.4389L21.2491 12.3533Z" fill="#98B8E6"/></svg>